<svg id="Layer_1" data-name="Layer 1" xmlns="http://www.w3.org/2000/svg" viewBox="0 0 638 229.62"><defs><style>.cls-1{fill-rule:evenodd;}</style></defs><title>Nike Logo Vector</title><path class="cls-1" d="M262.73,395.37C221.21,444.13,181.4,504.59,181,549.78c-.15,17,5.28,31.85,18.3,43.1,18.74,16.18,39.38,21.9,59.93,21.93,30,0,59.84-12.07,83.18-21.41C381.73,577.67,816.31,389,816.31,389c4.2-2.1,3.41-4.72-1.84-3.41-2.11.53-473.11,128.17-473.11,128.17A103.67,103.67,0,0,1,314,517.64c-36.2.21-68.41-19.88-68.15-62.22.1-16.57,5.18-36.54,16.93-60.05Z" transform="translate(-181 -385.19)"/></svg>