<?xml version="1.0" encoding="UTF-8"?>
<svg width="164px" height="42px" viewBox="0 0 164 42" version="1.1" xmlns="http://www.w3.org/2000/svg" xmlns:xlink="http://www.w3.org/1999/xlink">
    <g id="Pricing-Page" stroke="none" stroke-width="1" fill="none" fill-rule="evenodd">
        <g id="NC-EasyWP-Pricing-Page" transform="translate(-638.000000, -249.000000)">
            <g id="easywp-logo" transform="translate(638.000000, 249.000000)">
                <path d="M38.5748491,23.474637 C38.2793822,23.474637 38.0167449,23.5415163 37.8197669,23.6752749 C36.375262,26.1163696 35.0949053,27.1864386 32.9281478,27.1864386 C31.0568572,27.1864386 29.7765005,26.4173265 29.054248,24.9459818 C31.2866648,20.6991457 32.8296588,17.2214217 32.8296588,12.4395512 C32.8296588,4.17995673 28.2335066,0 20.0589215,0 C11.8843365,0 7.28818426,4.17995673 7.28818426,12.4395512 C7.28818426,17.2214217 8.83117822,20.6991457 11.063595,24.9459818 C10.3413425,26.4173265 9.06098583,27.1864386 7.18969528,27.1864386 C5.0229378,27.1864386 3.7425811,26.1163696 2.29807612,23.6752749 C2.10109816,23.5415163 1.83846089,23.474637 1.54299396,23.474637 C0.590933859,23.474637 0,24.2103094 0,25.7819731 C0,29.5940936 3.31579554,32.7374211 8.10892573,32.7374211 C9.35645276,32.7374211 10.6696391,32.5367832 12.1141441,32.0017487 C10.2100239,36.8170589 8.10892573,37.8202485 5.28557507,37.1180157 C4.56332257,37.4858519 4.33351496,38.254964 4.33351496,38.8568777 C4.33351496,40.4619811 5.9749979,42.0002052 9.35645276,42.0002052 C14.2152423,42.0002052 18.0234827,38.8903174 19.5008173,32.2692659 C19.6649656,32.1020677 19.7962843,31.9683091 20.0589215,31.9683091 C20.3215588,31.9683091 20.4528774,32.1020677 20.6170257,32.2692659 C22.0943604,38.8903174 25.9026008,42.0002052 30.7613903,42.0002052 C34.1428452,42.0002052 35.7843281,40.4619811 35.7843281,38.8568777 C35.7843281,38.254964 35.5545205,37.4858519 34.832268,37.1180157 C32.0089173,37.8202485 29.9078192,36.8170589 28.003699,32.0017487 C29.448204,32.5367832 30.7613903,32.7374211 32.0089173,32.7374211 C36.8020475,32.7374211 40.1178431,29.5940936 40.1178431,25.7819731 C40.1178431,24.2103094 39.5269092,23.474637 38.5748491,23.474637 Z" id="Page-1" fill="#108F64"></path>
                <path d="M69.5621541,13.9451662 L59.7926326,13.9451662 L59.7926326,19.0444943 L68.5822325,19.0444943 L68.5822325,22.6954925 L59.7926326,22.6954925 L59.7926326,28.1569031 L69.2949027,28.1569031 L69.2949027,31.8380749 L55.5166111,31.8380749 L55.5166111,12.0442332 C55.5166111,10.9579858 56.3777543,10.2941679 57.3279813,10.2941679 L69.5621541,10.2941679 L69.5621541,13.9451662 Z M78.7377836,16.3590493 C82.65747,16.3590493 85.3002889,18.5918912 85.3002889,22.6351454 L85.3002889,31.8380749 L81.7369376,31.8380749 L81.7369376,29.8767948 C80.6976268,31.2949511 79.0941188,32.2001573 76.9264134,32.2001573 C73.8678702,32.2001573 71.8189432,30.3595714 71.8189432,27.5232588 C71.8189432,23.8119135 75.2932107,22.5446248 79.0644242,22.5446248 C79.9255674,22.5446248 80.7867106,22.6049719 81.5884647,22.725666 L81.5884647,22.5144513 C81.5884647,20.5531712 80.2819025,19.6177915 78.4408377,19.6177915 C77.0451918,19.6177915 75.4713783,20.1307417 73.9272594,21.3376832 L72.2049729,18.7729324 C73.808481,17.2340819 76.2731323,16.3590493 78.7377836,16.3590493 Z M77.906335,29.1526299 C80.103735,29.1526299 81.4399917,27.4629117 81.5884647,25.1395492 C80.8164052,25.0792021 80.0740404,25.0490286 79.3613701,25.0490286 C77.4312215,25.0490286 75.8277134,25.6223258 75.8277134,27.2516969 C75.8277134,28.3681179 76.6294675,29.1526299 77.906335,29.1526299 Z M93.7335536,32.1699838 C91.3876807,32.1699838 89.0715024,31.3854718 87.5273835,29.8767948 L89.1308915,27.2818704 C90.704705,28.5793326 92.3676023,29.0621093 93.5553861,29.0621093 C94.802559,29.0621093 95.8715644,28.5491591 95.8715644,27.5836058 C95.8715644,26.3766643 94.2680563,26.0447553 92.6645482,25.5016316 C90.2889807,24.6869461 88.3588321,23.6308722 88.3588321,21.0962949 C88.3588321,18.0487675 90.9422618,16.3590493 94.3571401,16.3590493 C96.4654563,16.3590493 98.5143833,17.0530407 99.9397238,18.1091146 L98.3956049,20.6738654 C97.0296536,19.8290063 95.6933968,19.4065767 94.5353077,19.4065767 C93.1990509,19.4065767 92.3676023,19.979874 92.3676023,20.764386 C92.3676023,21.7902863 93.6147752,22.1523688 94.9807266,22.6049719 C97.4156833,23.4196574 100.088197,24.2946901 100.088197,27.3422175 C100.088197,30.5104391 97.0890427,32.1699838 93.7335536,32.1699838 Z M112.352064,16.7513053 L116.479613,16.7513053 L110.392221,32.2303309 C109.382605,34.7950817 107.749402,37.8727827 104.334524,37.8727827 C102.968572,37.8727827 101.691705,37.390006 100.741478,36.5149734 L102.166818,33.6786607 C102.731016,34.1312638 103.354602,34.4028257 104.126662,34.4028257 C105.314445,34.4028257 106.027116,33.6484872 106.621007,32.2605044 L107.007037,31.2949511 L101.305675,16.7513053 L105.462918,16.7513053 L108.96688,26.8896144 L112.352064,16.7513053 Z M140.653212,10.2941679 L144.988623,10.2941679 L140.148404,30.4199185 C139.821763,31.7777278 138.396423,32.1699838 137.14925,32.1699838 C135.902077,32.1699838 134.417347,31.8380749 134.090706,30.4199185 L131.002469,18.7729324 L127.914231,30.4199185 C127.58759,31.8079013 126.073166,32.1699838 124.855688,32.1699838 C123.608515,32.1699838 122.183174,31.7777278 121.886228,30.4199185 L117.105399,10.2941679 L121.589282,10.2941679 L125.122939,27.1008292 L129.07232,12.6778775 L133.021701,12.6778775 L137.030471,27.1913498 L140.653212,10.2941679 Z M156.075233,10.2941679 C160.974841,10.2941679 163.380103,13.4925631 163.380103,17.3849496 C163.380103,21.941154 160.707589,24.4757313 155.778287,24.4757313 L152.185241,24.4757313 L152.185241,31.8380749 L147.909219,31.8380749 L147.909219,12.0442332 C147.909219,11.0485064 148.681279,10.2941679 149.6612,10.2941679 L156.075233,10.2941679 Z M155.557698,20.8850802 C157.755098,20.8850802 159.002271,19.8591798 159.002271,17.3547761 C159.002271,15.2124548 157.755098,13.9149926 155.528004,13.9149926 L152.113125,13.9149926 L152.113125,20.8850802 L155.557698,20.8850802 Z" id="EasyWP" fill="#2B3A47"></path>
            </g>
        </g>
    </g>
</svg>
